<svg width="24" height="24" viewBox="0 0 24 24" fill="none" xmlns="http://www.w3.org/2000/svg">
<g clip-path="url(#clip0_19_692)">
<path d="M11.0781 8.34694V10.1728H12.9245V8.34694H11.0781Z" fill="#E7FE53"/>
<path d="M9.23203 8.34696V10.1728H11.0784V8.34696H9.23203Z" fill="#E7FE53"/>
<path d="M5.53986 8.34694V10.1728H7.38621V8.34694H5.53986Z" fill="#E7FE53"/>
<path d="M7.38593 8.34696V10.1728H9.23228V8.34696H7.38593Z" fill="#E7FE53"/>
<path d="M3.69299 8.34971V10.1756H5.53935V8.34971H3.69299Z" fill="#E7FE53"/>
<path d="M1.84686 8.34971L1.84686 10.1756H3.69322V8.34971H1.84686Z" fill="#E7FE53"/>
<path d="M11.0812 19.3022V21.1281H12.9276V19.3022H11.0812Z" fill="#E7FE53"/>
<path d="M9.23438 19.3022V21.1281H11.0807V19.3022H9.23438Z" fill="#E7FE53"/>
<path d="M7.38907 19.3022V21.1281H9.23543V19.3022H7.38907Z" fill="#E7FE53"/>
<path d="M5.54218 19.3022V21.1281H7.38853V19.3022H5.54218Z" fill="#E7FE53"/>
<path d="M0 10.1755L0 12.0013H1.84636L1.84636 10.1755H0Z" fill="#E7FE53"/>
<path d="M0 12.0013L0 13.8272H1.84636L1.84636 12.0013H0Z" fill="#E7FE53"/>
<path d="M0 13.8271L0 15.653H1.84636L1.84636 13.8271H0Z" fill="#E7FE53"/>
<path d="M1.84686 15.653L1.84686 17.4789H3.69322V15.653H1.84686Z" fill="#E7FE53"/>
<path d="M3.69296 17.4789V19.3048H5.53932V17.4789H3.69296Z" fill="#E7FE53"/>
<path d="M12.9273 8.34696V10.1728H14.7737V8.34696H12.9273Z" fill="#E7FE53"/>
<path d="M7.38593 4.69519V6.52106H9.23228V4.69519H7.38593Z" fill="#E7FE53"/>
<path d="M9.23438 2.86924V4.6951H11.0807V2.86924H9.23438Z" fill="#E7FE53"/>
<path d="M7.38907 1.04349V2.86935H9.23543V1.04349L7.38907 1.04349Z" fill="#E7FE53"/>
<path d="M12.9273 1.04349V2.86935H14.7737V1.04349L12.9273 1.04349Z" fill="#E7FE53"/>
<path d="M12.9273 4.69519V6.52106H14.7737V4.69519H12.9273Z" fill="#E7FE53"/>
<path d="M11.0812 6.52629V8.35217H12.9276V6.52629H11.0812Z" fill="#E7FE53"/>
<path d="M3.69531 21.1306V22.9565H5.54167V21.1306H3.69531Z" fill="#E7FE53"/>
<path d="M1.84924 21.1306L1.84924 22.9565H3.6956V21.1306H1.84924Z" fill="#E7FE53"/>
<path d="M14.7742 21.1281V22.9539H16.6206V21.1281H14.7742Z" fill="#E7FE53"/>
<path d="M16.6203 21.1306V22.9565H18.4667V21.1306H16.6203Z" fill="#E7FE53"/>
<path d="M14.7742 2.86933V4.69519H16.6206V2.86933H14.7742Z" fill="#E7FE53"/>
<path d="M14.7742 8.34696V10.1728H16.6206V8.34696H14.7742Z" fill="#E7FE53"/>
<path d="M16.6203 8.34694V10.1728H18.4667V8.34694H16.6203Z" fill="#E7FE53"/>
<path d="M12.9273 19.3022V21.1281H14.7737V19.3022H12.9273Z" fill="#E7FE53"/>
<path d="M11.0812 21.128V22.9539H12.9276V21.128H11.0812Z" fill="#E7FE53"/>
<path d="M9.23438 21.1281V22.9539H11.0807V21.1281H9.23438Z" fill="#E7FE53"/>
<path d="M7.38907 21.1281V22.9539H9.23542V21.1281H7.38907Z" fill="#E7FE53"/>
<path d="M5.54218 21.128V22.9539H7.38853V21.128H5.54218Z" fill="#E7FE53"/>
<path d="M12.9273 21.1281V22.9539H14.7737V21.1281H12.9273Z" fill="#E7FE53"/>
<path d="M18.4664 10.1729V11.9988H20.3128V10.1729H18.4664Z" fill="#E7FE53"/>
<path d="M18.4664 11.9987V13.8246H20.3128V11.9987H18.4664Z" fill="#E7FE53"/>
<path d="M18.4664 8.34696V10.1728H20.3128V8.34696H18.4664Z" fill="#E7FE53"/>
<path d="M20.3102 8.34696V10.1728H22.1565V8.34696H20.3102Z" fill="#E7FE53"/>
<path d="M22.1539 10.1729V11.9988H24.0003V10.1729H22.1539Z" fill="#E7FE53"/>
<path d="M22.1539 11.9987V13.8246H24.0003V11.9987H22.1539Z" fill="#E7FE53"/>
<path d="M20.3102 13.8245V15.6504H22.1565V13.8245H20.3102Z" fill="#E7FE53"/>
<path d="M18.4664 13.8245V15.6504H20.3128V13.8245H18.4664Z" fill="#E7FE53"/>
<path d="M16.6172 15.6504V17.4763H18.4635V15.6504H16.6172Z" fill="#E7FE53"/>
<path d="M14.7711 17.4764V19.3023H16.6175V17.4764H14.7711Z" fill="#E7FE53"/>
</g>
<defs>
<clipPath id="clip0_19_692">
<rect width="24" height="24" fill="white"/>
</clipPath>
</defs>
</svg>
