<svg width="24" height="24" viewBox="0 0 24 24" fill="none" xmlns="http://www.w3.org/2000/svg">
<path d="M2.99999 8.53571H5.573V5.95647H2.99999L2.99999 8.53571Z" fill="#E7FE53"/>
<path d="M2.99999 11.1113H5.573V8.53209H2.99999L2.99999 11.1113Z" fill="#E7FE53"/>
<path d="M3.00001 13.6905H5.57302V11.1113H3.00001L3.00001 13.6905Z" fill="#E7FE53"/>
<path d="M5.57303 5.95651H8.14604V3.37728H5.57303V5.95651Z" fill="#E7FE53"/>
<path d="M8.14232 3.3291H10.7153V0.74987H8.14232V3.3291Z" fill="#E7FE53"/>
<path d="M10.7153 3.3291H13.2883V0.74987H10.7153V3.3291Z" fill="#E7FE53"/>
<path d="M10.7154 11.1113H13.2884V8.53209H10.7154V11.1113Z" fill="#E7FE53"/>
<path d="M2.99999 16.2661H5.573V13.6869H2.99999L2.99999 16.2661Z" fill="#E7FE53"/>
<path d="M5.57301 18.9967H8.14602V16.4175H5.57301V18.9967Z" fill="#E7FE53"/>
<path d="M8.14235 21.5723H10.7154V18.9931H8.14235V21.5723Z" fill="#E7FE53"/>
<path d="M10.7154 24H13.2884V21.4208H10.7154V24Z" fill="#E7FE53"/>
<path d="M13.2847 3.3291H15.8577V0.74987H13.2847V3.3291Z" fill="#E7FE53"/>
<path d="M13.2847 21.4208H15.8577V18.8416H13.2847V21.4208Z" fill="#E7FE53"/>
<path d="M15.8577 5.95648H18.4307V3.37725H15.8577V5.95648Z" fill="#E7FE53"/>
<path d="M15.8577 18.8453H18.4307V16.266H15.8577V18.8453Z" fill="#E7FE53"/>
<path d="M18.427 8.53571H21V5.95647H18.427V8.53571Z" fill="#E7FE53"/>
<path d="M18.427 11.1113H21V8.53209H18.427V11.1113Z" fill="#E7FE53"/>
<path d="M18.427 13.6905H21V11.1113H18.427V13.6905Z" fill="#E7FE53"/>
<path d="M18.427 16.2661H21V13.6869H18.427V16.2661Z" fill="#E7FE53"/>
</svg>
