<svg width="24" height="24" viewBox="0 0 24 24" fill="none" xmlns="http://www.w3.org/2000/svg">
<path d="M9.22345 0.790914V2.65869H11.0702V0.790914L9.22345 0.790914Z" fill="#1A1A1A"/>
<path d="M7.38751 0.79334V2.66113H9.23431V0.79334L7.38751 0.79334Z" fill="#1A1A1A"/>
<path d="M22.1531 2.65564V4.52344H23.9999V2.65564H22.1531Z" fill="#1A1A1A"/>
<path d="M5.54065 0.793355V2.66113H7.38744V0.793355L5.54065 0.793355Z" fill="#1A1A1A"/>
<path d="M3.69373 0.793357V2.66113H5.54052V0.793357L3.69373 0.793357Z" fill="#1A1A1A"/>
<path d="M1.84607 0.79334L1.84607 2.66113H3.69286V0.79334L1.84607 0.79334Z" fill="#1A1A1A"/>
<path d="M0 2.65566L0 4.52344H1.84679L1.84679 2.65566H0Z" fill="#1A1A1A"/>
<path d="M22.1531 4.52381V6.3916H23.9999V4.52381H22.1531Z" fill="#1A1A1A"/>
<path d="M0 4.52382L0 6.3916H1.84679L1.84679 4.52382H0Z" fill="#1A1A1A"/>
<path d="M22.1531 6.39148V8.25928H23.9999V6.39148H22.1531Z" fill="#1A1A1A"/>
<path d="M0 6.3915L0 8.25928H1.8468L1.8468 6.3915H0Z" fill="#1A1A1A"/>
<path d="M22.1531 8.25916V10.127H23.9999V8.25916H22.1531Z" fill="#1A1A1A"/>
<path d="M0 8.25918L0 10.127H1.84679L1.84679 8.25918H0Z" fill="#1A1A1A"/>
<path d="M22.1531 10.1273V11.9951H23.9999V10.1273H22.1531Z" fill="#1A1A1A"/>
<path d="M0 10.1273L0 11.9951H1.84679L1.84679 10.1273H0Z" fill="#1A1A1A"/>
<path d="M22.1531 12.0052V13.873H23.9999V12.0052H22.1531Z" fill="#1A1A1A"/>
<path d="M0 12.0053L0 13.873H1.84679L1.84679 12.0053H0Z" fill="#1A1A1A"/>
<path d="M22.1531 13.8734V15.7412H23.9999V13.8734H22.1531Z" fill="#1A1A1A"/>
<path d="M0 13.8734L0 15.7412H1.84679L1.84679 13.8734H0Z" fill="#1A1A1A"/>
<path d="M22.1531 15.7411V17.6089H23.9999V15.7411H22.1531Z" fill="#1A1A1A"/>
<path d="M0 15.7411L0 17.6089H1.84679L1.84679 15.7411H0Z" fill="#1A1A1A"/>
<path d="M18.4602 0.785543V2.65332H20.307V0.785543L18.4602 0.785543Z" fill="#1A1A1A"/>
<path d="M11.0703 0.790898V2.65869H12.9171V0.790898L11.0703 0.790898Z" fill="#1A1A1A"/>
<path d="M12.9196 0.790914V2.65869H14.7663V0.790914L12.9196 0.790914Z" fill="#1A1A1A"/>
<path d="M14.7633 0.785543V2.65332H16.6101V0.785543L14.7633 0.785543Z" fill="#1A1A1A"/>
<path d="M16.6133 0.785528V2.65332H18.4601V0.785528L16.6133 0.785528Z" fill="#1A1A1A"/>
<path d="M9.22577 17.6195V19.4873H11.0726V17.6195H9.22577Z" fill="#1A1A1A"/>
<path d="M20.3063 0.782614V2.65039H22.1531V0.782614L20.3063 0.782614Z" fill="#1A1A1A"/>
<path d="M20.3063 17.6142V19.4819H22.1531V17.6142H20.3063Z" fill="#1A1A1A"/>
<path d="M11.0727 17.6195V19.4873H12.9195V17.6195H11.0727Z" fill="#1A1A1A"/>
<path d="M12.9196 17.6195V19.4873H14.7663V17.6195H12.9196Z" fill="#1A1A1A"/>
<path d="M16.6133 21.3495V23.2173H18.4601V21.3495H16.6133Z" fill="#1A1A1A"/>
<path d="M14.7664 19.4818V21.3496H16.6132V19.4818H14.7664Z" fill="#1A1A1A"/>
<path d="M18.4601 19.4818V21.3496H20.3069V19.4818H18.4601Z" fill="#1A1A1A"/>
<path d="M7.38983 17.6224V19.4902H9.23663V17.6224H7.38983Z" fill="#1A1A1A"/>
<path d="M5.54297 17.622V19.4897H7.38976V17.622H5.54297Z" fill="#1A1A1A"/>
<path d="M3.69611 17.6225V19.4902H5.5429V17.6225H3.69611Z" fill="#1A1A1A"/>
<path d="M1.84924 17.6224L1.84924 19.4902H3.69604V17.6224H1.84924Z" fill="#1A1A1A"/>
</svg>
