<svg width="147" height="16" viewBox="0 0 147 16" fill="none" xmlns="http://www.w3.org/2000/svg">
<g clip-path="url(#clip0_78_419)">
<path d="M37.6753 15.6497V13.7302L45.4365 5.9165H38.2628V3.6582H49.3002V5.6455L41.7084 13.4366H49.7069V15.6384L37.6753 15.6497Z" fill="white"/>
<path d="M57.4356 15.9999C56.1861 16.027 54.9466 15.7723 53.8092 15.2547C52.8068 14.7909 51.968 14.0352 51.4029 13.0867C50.8077 12.0385 50.5108 10.8476 50.5443 9.6428V9.48472C50.5186 8.33445 50.8161 7.20002 51.4029 6.21019C51.9734 5.27703 52.8119 4.53729 53.8092 4.0874C56.184 3.11605 58.8455 3.11605 61.2202 4.0874C62.1904 4.54285 62.9984 5.28345 63.5361 6.21019C64.0789 7.21853 64.3477 8.35146 64.3157 9.49601V10.0945L61.4575 9.82346V9.03306C61.443 8.43353 61.2882 7.84573 61.0056 7.31676C60.7056 6.78162 60.2369 6.36077 59.6725 6.11986C58.9852 5.80425 58.2372 5.6424 57.4808 5.64562C56.746 5.63994 56.0195 5.80215 55.3569 6.11986C54.7768 6.38988 54.3008 6.84187 54.0013 7.40709C53.6769 8.05459 53.5178 8.77219 53.5381 9.49601V9.78959C53.5195 10.5314 53.6783 11.2669 54.0013 11.935C54.2962 12.5091 54.7728 12.9696 55.3569 13.2448C56.0197 13.5452 56.742 13.6919 57.4695 13.6738C58.4002 13.7251 59.3268 13.518 60.147 13.0754C60.4369 12.9019 60.6873 12.6696 60.8819 12.3934C61.0765 12.1172 61.211 11.8033 61.2767 11.472H64.2366C64.1181 12.3656 63.7531 13.2086 63.1825 13.9066C62.6118 14.6045 61.8581 15.13 61.0056 15.424C59.8616 15.8355 58.651 16.0308 57.4356 15.9999ZM53.0975 10.3767V8.54753H62.3273L64.3157 9.46213V10.3767H53.0975Z" fill="white"/>
<path d="M102.635 15.9999C101.382 16.0256 100.139 15.771 98.997 15.2546C98.0003 14.7823 97.1638 14.0286 96.5907 13.0867C96.0005 12.0369 95.7076 10.8463 95.7434 9.64277V9.4734C95.714 8.32775 96.0076 7.19693 96.5907 6.21016C97.1612 5.277 97.9997 4.53726 98.997 4.08737C100.155 3.58946 101.408 3.35053 102.669 3.3873C103.956 3.34772 105.235 3.60262 106.408 4.13253C107.36 4.58842 108.149 5.32549 108.667 6.24404C109.212 7.2518 109.481 8.38514 109.447 9.52985V10.117L106.645 9.82343V9.03303C106.64 8.42863 106.485 7.83498 106.193 7.30543C105.887 6.77547 105.42 6.35638 104.86 6.10854C104.172 5.79577 103.424 5.63773 102.669 5.64559C101.935 5.63639 101.208 5.79472 100.545 6.10854C99.9717 6.38889 99.4986 6.83818 99.1891 7.39577C98.8647 8.04729 98.7056 8.76854 98.7259 9.49598V9.77826C98.706 10.5202 98.8649 11.256 99.1891 11.9236C99.4834 12.501 99.9598 12.9653 100.545 13.2447C101.208 13.5452 101.93 13.6919 102.657 13.6738C103.588 13.7251 104.515 13.518 105.335 13.0754C105.625 12.8996 105.876 12.6652 106.07 12.3871C106.265 12.1091 106.399 11.7936 106.465 11.4607H109.424C109.308 12.3563 108.944 13.2017 108.373 13.9018C107.802 14.6019 107.047 15.1291 106.193 15.424C105.053 15.8346 103.846 16.0299 102.635 15.9999ZM98.2288 10.3541L98.2853 8.5475H107.504L109.492 9.45081V10.3654L98.2288 10.3541Z" fill="white"/>
<path d="M77.4088 15.65L73.4321 3.70361H76.5728L79.3406 12.9626L79.431 13.4707L79.6004 12.9626L82.5377 3.70361H86.006L88.8981 12.9626L89.0562 13.4707L89.1579 12.9626L91.937 3.70361H95.1229L91.1123 15.65H87.3617L84.334 6.33452L84.2549 6.00707L84.1645 6.33452L81.1708 15.65H77.4088Z" fill="white"/>
<path d="M123.141 15.65V0H126.09V8.14114H129.016L132.405 3.62456H135.794L131.433 9.32675L136.178 15.6951H132.721L128.925 10.3881H126.056V15.65H123.141Z" fill="white"/>
<path d="M15.6462 15.65V3.70361H18.6061V15.65H15.6462Z" fill="white"/>
<path d="M15.6462 0.169434V2.65356H18.6061V0.169434H15.6462Z" fill="white"/>
<path d="M0 15.6501V0.609863H13.15V3.13915H3.27621V6.775H12.314V9.11233H3.27621V13.1434H13.263V15.6501H0Z" fill="white"/>
<path d="M73.0821 13.1658V15.65H71.2406C68.8004 15.65 66.8234 14.0014 66.8234 11.9802V0H69.772V12.0706C69.772 12.6803 70.4272 13.1997 71.2406 13.1997L73.0821 13.1658Z" fill="white"/>
<path d="M34.1175 4.77631C33.5692 4.28832 32.9293 3.91421 32.2349 3.67577C31.5406 3.43734 30.8057 3.33933 30.0731 3.38746H30.0053C28.7337 3.31357 27.4656 3.58266 26.3337 4.16657C25.7321 4.46305 25.221 4.91537 24.8538 5.47638C24.7182 5.73609 24.3906 6.50391 24.3906 6.50391L24.0517 6.36841L24.6617 4.97956C24.778 4.74544 24.8544 4.49357 24.8877 4.23432C24.8877 4.11012 24.8877 3.98591 24.8877 3.873V3.70362H21.9391V15.65H24.8538V10.1623C24.8434 9.42861 25.0018 8.70231 25.317 8.03954C25.6216 7.37964 26.1074 6.81972 26.7178 6.42487C27.4241 5.99412 28.2407 5.77832 29.0677 5.80384C29.5589 5.7683 30.0521 5.83638 30.5153 6.00367C30.9785 6.17096 31.4014 6.43372 31.7564 6.7749C32.3881 7.56105 32.6952 8.5588 32.615 9.56389V15.6952H35.5523V9.16869C35.6163 8.37805 35.5225 7.58258 35.2761 6.82852C35.0298 6.07447 34.636 5.37688 34.1175 4.77631Z" fill="white"/>
<path d="M121.185 3.51163C120.748 3.41523 120.3 3.37351 119.852 3.38742C118.652 3.33267 117.459 3.59765 116.395 4.15524C115.811 4.46897 115.314 4.92296 114.949 5.47634L114.497 6.50386L114.102 6.37966L114.701 4.97952C114.804 4.76119 114.876 4.5293 114.915 4.29074C114.92 4.26846 114.92 4.24526 114.915 4.22299C114.915 4.12137 114.915 3.98587 114.915 3.88424V3.69229H112.012V15.6499H114.972V10.1623C114.96 10.0346 114.96 9.90611 114.972 9.77839C115.001 9.17515 115.151 8.58386 115.412 8.0395C115.714 7.38098 116.201 6.82406 116.813 6.43611C117.516 5.99783 118.335 5.78142 119.163 5.81508C119.833 5.82828 120.502 5.89245 121.163 6.00704L121.185 3.51163Z" fill="white"/>
<path d="M142.29 8.4458H139.94V10.7944H142.29V8.4458Z" fill="#E7FE53"/>
<path d="M144.639 10.7944H142.289V13.1431H144.639V10.7944Z" fill="#E7FE53"/>
<path d="M147.001 13.1431H144.651V15.4917H147.001V13.1431Z" fill="#E7FE53"/>
<path d="M144.639 6.08594H142.289V8.43456H144.639V6.08594Z" fill="#E7FE53"/>
<path d="M147.001 3.7373H144.651V6.08593H147.001V3.7373Z" fill="#E7FE53"/>
</g>
<defs>
<clipPath id="clip0_78_419">
<rect width="147" height="16" fill="white"/>
</clipPath>
</defs>
</svg>
