<svg width="97" height="278" viewBox="0 0 97 278" fill="none" xmlns="http://www.w3.org/2000/svg">
<path d="M59.3704 281.094H71.1869V269.277H59.3704V281.094Z" fill="#E7FE53"/>
<path d="M35.7373 269.277H47.5538V257.461H35.7373V269.277Z" fill="#E7FE53"/>
<path d="M83.0033 269.26H94.8198V257.444H83.0033V269.26Z" fill="#E7FE53"/>
<path d="M59.3702 257.461H71.1867V245.644H59.3702V257.461Z" fill="#E7FE53"/>
<path d="M59.3702 245.644H71.1867V233.827H59.3702V245.644Z" fill="#E7FE53"/>
<path d="M94.8197 257.46H106.636V245.644H94.8197V257.46Z" fill="#E7FE53"/>
<path d="M23.9208 257.46H35.7373V245.644H23.9208V257.46Z" fill="#E7FE53"/>
<path d="M24.1233 9.36328H35.8892V-2.40262H24.1233V9.36328Z" fill="#E7FE53"/>
<path d="M24.1233 21.1289H35.8892V9.36301H24.1233V21.1289Z" fill="#E7FE53"/>
<path d="M24.1232 32.8782H35.8891V21.1123H24.1232V32.8782Z" fill="#E7FE53"/>
<path d="M94.6679 32.8782H106.434V21.1123H94.6679V32.8782Z" fill="#E7FE53"/>
<path d="M35.8891 44.644H47.655V32.8781H35.8891V44.644Z" fill="#E7FE53"/>
<path d="M58.8142 21.1292H70.5801V9.36325H58.8142V21.1292Z" fill="#E7FE53"/>
<path d="M47.6382 44.644H59.4041V32.8781H47.6382V44.644Z" fill="#E7FE53"/>
<path d="M59.4042 44.644H71.17V32.8781H59.4042V44.644Z" fill="#E7FE53"/>
<path d="M71.1532 44.644H82.9191V32.8781H71.1532V44.644Z" fill="#E7FE53"/>
<path d="M82.9191 44.644H94.685V32.8781H82.9191V44.644Z" fill="#E7FE53"/>
<path d="M94.668 9.36304H106.434V-2.40286H94.668V9.36304Z" fill="#E7FE53"/>
<path d="M94.668 21.1289H106.434V9.36301H94.668V21.1289Z" fill="#E7FE53"/>
<path d="M59.4038 109.577V121.343H71.1697V109.577H59.4038Z" fill="#E7FE53"/>
<path d="M71.1706 97.8107V109.577H82.9365V97.8107H71.1706Z" fill="#E7FE53"/>
<path d="M82.9371 86.0451V97.811H94.703V86.0451H82.9371Z" fill="#E7FE53"/>
<path d="M94.7039 86.0452V97.811H106.47V86.0452H94.7039Z" fill="#E7FE53"/>
<path d="M94.7039 144.891V156.657H106.47V144.891H94.7039Z" fill="#E7FE53"/>
<path d="M82.9537 156.657V168.423H94.7196V156.657H82.9537Z" fill="#E7FE53"/>
<path d="M71.1704 168.423V180.189H82.9363V168.423H71.1704Z" fill="#E7FE53"/>
<path d="M47.6404 97.8107V109.577H59.4063V97.8107H47.6404Z" fill="#E7FE53"/>
<path d="M35.8737 86.0444V97.8103H47.6396V86.0444H35.8737Z" fill="#E7FE53"/>
<path d="M24.1069 86.0452L24.1069 97.811H35.8729V86.0452H24.1069Z" fill="#E7FE53"/>
<path d="M12.3239 98.2832L12.3239 110.049H24.0898V98.2832H12.3239Z" fill="#E7FE53"/>
<path d="M0.557129 110.049L0.557129 121.815H12.323L12.323 110.049H0.557129Z" fill="#E7FE53"/>
<path d="M0.557312 121.815L0.557312 133.581H12.3232L12.3232 121.815H0.557312Z" fill="#E7FE53"/>
<path d="M12.3239 133.108L12.3239 144.874H24.0898V133.108H12.3239Z" fill="#E7FE53"/>
<path d="M24.0905 144.875L24.0905 156.64H35.8564V144.875H24.0905Z" fill="#E7FE53"/>
<path d="M35.8737 157.129V168.895H47.6396V157.129H35.8737Z" fill="#E7FE53"/>
<path d="M47.6404 168.895V180.661H59.4063V168.895H47.6404Z" fill="#E7FE53"/>
<path d="M59.4038 180.661V192.427H71.1697V180.661H59.4038Z" fill="#E7FE53"/>
</svg>
