<svg class="preloader__text" height="48" viewBox="0 0 441 48" fill="none" xmlns="http://www.w3.org/2000/svg">
  <g class="E preloader__text_letter">
    <path d="M0 46.9503V1.82959H39.4501V9.41745H9.82862V20.325H36.9421V27.337H9.82862V39.4302H39.789V46.9503H0Z"
      fill="white" />
  </g>
  <g class="preloader__text_hidden">
    <g class="I">
      <path d="M46.9385 46.9499V11.1108H55.8181V46.9499H46.9385Z" fill="white" />
      <path d="M46.9385 0.508301V7.96067H55.8181V0.508301H46.9385Z" fill="white" />
    </g>
    <g class="N">
      <path
        d="M102.353 14.3289C100.708 12.865 98.7878 11.7426 96.7048 11.0273C94.6217 10.312 92.4172 10.018 90.2194 10.1624H90.016C86.2012 9.94071 82.3968 10.748 79.0012 12.4997C77.1963 13.3892 75.6631 14.7461 74.5613 16.4292C74.1546 17.2083 73.1718 19.5117 73.1718 19.5117L72.155 19.1052L73.9852 14.9387C74.334 14.2363 74.5631 13.4807 74.663 12.703C74.663 12.3304 74.663 11.9577 74.663 11.619V11.1109H65.8173V46.95H74.5613V30.487C74.5301 28.2858 75.0055 26.1069 75.9509 24.1186C76.8648 22.1389 78.3221 20.4592 80.1535 19.2746C82.2724 17.9824 84.722 17.335 87.203 17.4115C88.6767 17.3049 90.1563 17.5091 91.546 18.011C92.9356 18.5129 94.2041 19.3012 95.2692 20.3247C97.1643 22.6832 98.0857 25.6764 97.845 28.6917V47.0855H106.657V27.5061C106.849 25.1342 106.567 22.7477 105.828 20.4856C105.09 18.2234 103.908 16.1306 102.353 14.3289Z"
        fill="white" />
    </g>
    <g class="Z">
      <path
        d="M113.026 46.9492V41.1906L136.31 17.7495H114.788V10.9746H147.901V16.9365L125.125 40.3098H149.121V46.9153L113.026 46.9492Z"
        fill="white" />
    </g>
    <g class="E">
      <path
        d="M172.307 47.9997C168.558 48.0811 164.84 47.3169 161.428 45.764C158.42 44.3728 155.904 42.1058 154.209 39.2601C152.423 36.1155 151.532 32.5427 151.633 28.9284V28.4542C151.556 25.0033 152.448 21.6001 154.209 18.6306C155.92 15.8311 158.436 13.6119 161.428 12.2622C168.552 9.34815 176.536 9.34815 183.661 12.2622C186.571 13.6286 188.995 15.8503 190.608 18.6306C192.237 21.6556 193.043 25.0544 192.947 28.488V30.2834L184.372 29.4704V27.0992C184.329 25.3006 183.865 23.5372 183.017 21.9503C182.117 20.3449 180.711 19.0823 179.017 18.3596C176.955 17.4127 174.712 16.9272 172.442 16.9369C170.238 16.9198 168.059 17.4065 166.071 18.3596C164.33 19.1696 162.902 20.5256 162.004 22.2213C161.031 24.1638 160.554 26.3166 160.614 28.488V29.3688C160.559 31.5941 161.035 33.8006 162.004 35.8049C162.889 37.5274 164.318 38.9089 166.071 39.7343C168.059 40.6357 170.226 41.0758 172.409 41.0215C175.2 41.1754 177.981 40.5541 180.441 39.2262C181.311 38.7057 182.062 38.0087 182.646 37.1802C183.229 36.3517 183.633 35.41 183.83 34.416H192.71C192.354 37.0968 191.259 39.6257 189.547 41.7197C187.836 43.8136 185.574 45.3899 183.017 46.2721C179.585 47.5065 175.953 48.0924 172.307 47.9997ZM159.292 31.1302V25.6426H186.982L192.947 28.3864V31.1302H159.292Z"
        fill="white" />
    </g>
    <g class="L">
      <path
        d="M219.246 39.4975V46.9499H213.722C206.401 46.9499 200.47 42.0042 200.47 35.9407V0H209.316V36.2117C209.316 38.0409 211.282 39.5992 213.722 39.5992L219.246 39.4975Z"
        fill="white" />
    </g>
    <g class="W">
      <path
        d="M232.226 46.9499L220.296 11.1108H229.718L238.022 38.8878L238.293 40.4122L238.801 38.8878L247.613 11.1108H258.018L266.694 38.8878L267.169 40.4122L267.474 38.8878L275.811 11.1108H285.369L273.337 46.9499H262.085L253.002 19.0036L252.765 18.0212L252.494 19.0036L243.512 46.9499H232.226Z"
        fill="white" />
    </g>
    <g class="E">
      <path
        d="M307.904 47.9996C304.145 48.0769 300.417 47.313 296.991 45.7639C294.001 44.3469 291.491 42.0859 289.772 39.26C288.002 36.1108 287.123 32.539 287.23 28.9283V28.4202C287.142 24.9832 288.023 21.5908 289.772 18.6305C291.484 15.831 293.999 13.6118 296.991 12.2621C300.466 10.7684 304.225 10.0516 308.006 10.1619C311.867 10.0432 315.704 10.8079 319.224 12.3976C322.079 13.7652 324.446 15.9765 326.002 18.7321C327.635 21.7554 328.442 25.1554 328.341 28.5896V30.351L319.936 29.4703V27.0991C319.921 25.2859 319.455 23.5049 318.58 21.9163C317.661 20.3264 316.261 19.0691 314.581 18.3256C312.517 17.3873 310.273 16.9132 308.006 16.9368C305.804 16.9092 303.625 17.3842 301.634 18.3256C299.915 19.1667 298.496 20.5145 297.567 22.1873C296.594 24.1419 296.117 26.3056 296.178 28.4879V29.3348C296.118 31.5605 296.595 33.7679 297.567 35.7709C298.45 37.503 299.88 38.8959 301.634 39.7342C303.623 40.6357 305.789 41.0757 307.972 41.0215C310.764 41.1754 313.544 40.554 316.004 39.2261C316.875 38.6987 317.627 37.9955 318.21 37.1614C318.794 36.3273 319.197 35.3807 319.394 34.3821H328.273C327.924 37.0689 326.831 39.605 325.119 41.7054C323.407 43.8058 321.142 45.3873 318.58 46.272C315.159 47.5038 311.539 48.0897 307.904 47.9996ZM294.686 31.0624L294.856 25.6425H322.512L328.477 28.3524V31.0963L294.686 31.0624Z"
        fill="white" />

    </g>
    <g class="R">
      <path
        d="M363.556 10.5349C362.243 10.2457 360.9 10.1205 359.556 10.1623C355.956 9.998 352.377 10.793 349.185 12.4657C347.433 13.4069 345.942 14.7689 344.847 16.429L343.492 19.5116L342.305 19.139L344.102 14.9385C344.413 14.2836 344.629 13.5879 344.746 12.8722C344.761 12.8054 344.761 12.7358 344.746 12.669C344.746 12.3641 344.746 11.9576 344.746 11.6527V11.0769H336.035V46.9498H344.915V30.4869C344.881 30.1037 344.881 29.7183 344.915 29.3352C345.002 27.5254 345.452 25.7516 346.237 24.1185C347.143 22.1429 348.603 20.4722 350.439 19.3083C352.549 17.9935 355.005 17.3443 357.489 17.4453C359.5 17.4848 361.506 17.6774 363.488 18.0211L363.556 10.5349Z"
        fill="white" />
    </g>
    <g class="K">
      <path
        d="M369.424 46.9499V0H378.269V24.4234H387.047L397.215 10.8737H407.382L394.3 27.9802L408.535 47.0854H398.164L386.776 31.1644H378.168V46.9499H369.424Z"
        fill="white" />
    </g>
  </g>
  <g class="arrow">
    <path d="M426.869 25.3374H419.819V32.3833H426.869V25.3374Z" fill="#E7FE53" />
    <path d="M433.916 32.3833H426.866V39.4292H433.916V32.3833Z" fill="#E7FE53" />
    <path d="M441.002 39.4292H433.953V46.4751H441.002V39.4292Z" fill="#E7FE53" />
    <path d="M433.916 18.2578H426.866V25.3037H433.916V18.2578Z" fill="#E7FE53" />
    <path d="M441.002 11.2119H433.953V18.2578H441.002V11.2119Z" fill="#E7FE53" />
  </g>
</svg>