<svg width="67" height="284" viewBox="0 0 67 284" fill="none" xmlns="http://www.w3.org/2000/svg">
<path d="M61.8589 272.886H72.134V262.611H61.8589V272.886Z" fill="#E7FE53"/>
<path d="M51.584 262.626H61.859V252.351H51.584V262.626Z" fill="#E7FE53"/>
<path d="M41.3089 272.901H51.5839V262.626H41.3089V272.901Z" fill="#E7FE53"/>
<path d="M51.5839 283.176H61.8589V272.901H51.5839V283.176Z" fill="#E7FE53"/>
<path d="M31.0338 252.351H41.3088V242.076H31.0338V252.351Z" fill="#E7FE53"/>
<path d="M51.5839 242.076H61.8589V231.801H51.5839V242.076Z" fill="#E7FE53"/>
<path d="M51.5839 231.8H61.8589V221.525H51.5839V231.8Z" fill="#E7FE53"/>
<path d="M20.7588 272.886H31.0338V262.611H20.7588V272.886Z" fill="#E7FE53"/>
<path d="M10.4839 272.901H20.7589V262.626H10.4839L10.4839 272.901Z" fill="#E7FE53"/>
<path d="M31.0338 293.524H41.3088V283.249H31.0338V293.524Z" fill="#E7FE53"/>
<path d="M20.7588 242.075H31.0338V231.8H20.7588V242.075Z" fill="#E7FE53"/>
<path d="M20.9348 5.89462H31.1658V-4.33642H20.9348V5.89462Z" fill="#E7FE53"/>
<path d="M20.9348 16.1258H31.1658V5.89478H20.9348V16.1258Z" fill="#E7FE53"/>
<path d="M20.9349 26.3424H31.1659V16.1113H20.9349V26.3424Z" fill="#E7FE53"/>
<path d="M20.9349 36.5731H31.1659V26.342H20.9349V36.5731Z" fill="#E7FE53"/>
<path d="M20.9348 46.7896H31.1658V36.5586H20.9348V46.7896Z" fill="#E7FE53"/>
<path d="M31.1659 57.0206H41.3969V46.7895H31.1659V57.0206Z" fill="#E7FE53"/>
<path d="M51.1004 36.5733H61.3314V26.3423H51.1004V36.5733Z" fill="#E7FE53"/>
<path d="M41.3823 57.0206H51.6133V46.7895H41.3823V57.0206Z" fill="#E7FE53"/>
<path d="M51.6134 57.0206H61.8444V46.7895H51.6134V57.0206Z" fill="#E7FE53"/>
<path d="M61.8297 57.0206H72.0607V46.7895H61.8297V57.0206Z" fill="#E7FE53"/>
<path d="M51.613 113.483V123.714H61.844V113.483H51.613Z" fill="#E7FE53"/>
<path d="M61.8448 103.252V113.483H72.0759V103.252H61.8448Z" fill="#E7FE53"/>
<path d="M61.8447 164.653V174.884H72.0758V164.653H61.8447Z" fill="#E7FE53"/>
<path d="M41.3842 103.252V113.483H51.6152V103.252H41.3842Z" fill="#E7FE53"/>
<path d="M31.1525 93.0204V103.251H41.3835V93.0204H31.1525Z" fill="#E7FE53"/>
<path d="M20.9206 93.0209V103.252H31.1517V93.0209H20.9206Z" fill="#E7FE53"/>
<path d="M10.6747 103.662L10.6747 113.894H20.9057V103.662H10.6747Z" fill="#E7FE53"/>
<path d="M0.442841 113.893L0.442841 124.125H10.6739L10.6739 113.893H0.442841Z" fill="#E7FE53"/>
<path d="M0.442963 124.124L0.442963 134.355H10.674L10.674 124.124H0.442963Z" fill="#E7FE53"/>
<path d="M10.6747 133.945L10.6747 144.176H20.9057V133.945H10.6747Z" fill="#E7FE53"/>
<path d="M20.9063 144.176V154.407H31.1374V144.176H20.9063Z" fill="#E7FE53"/>
<path d="M31.1523 154.832V165.063H41.3834V154.832H31.1523Z" fill="#E7FE53"/>
<path d="M41.3842 165.063V175.294H51.6152V165.063H41.3842Z" fill="#E7FE53"/>
<path d="M51.613 175.294V185.525H61.844V175.294H51.613Z" fill="#E7FE53"/>
</svg>
