<svg fill="#fff" class="svg-icon" xmlns="http://www.w3.org/2000/svg" xmlns:xlink="http://www.w3.org/1999/xlink"><defs><symbol viewBox="0 0 8 13" fill="none" id="arrow">
<path d="M3.28954 5.4458H0.939697V7.79442H3.28954V5.4458Z" fill="#E7FE53" />
<path d="M5.63864 7.79443H3.28882V10.1431H5.63864V7.79443Z" fill="#E7FE53" />
<path d="M8.00069 10.1431H5.65088V12.4917H8.00069V10.1431Z" fill="#E7FE53" />
<path d="M5.63864 3.08594H3.28882V5.43456H5.63864V3.08594Z" fill="#E7FE53" />
<path d="M8.00069 0.737305H5.65088V3.08593H8.00069V0.737305Z" fill="#E7FE53" />
</symbol><symbol viewBox="0 0 24 24" fill="none" id="cup">
<g clip-path="url(#cup_clip0_19_692)">
<path d="M11.0781 8.34694V10.1728H12.9245V8.34694H11.0781Z" fill="#E7FE53" />
<path d="M9.23203 8.34696V10.1728H11.0784V8.34696H9.23203Z" fill="#E7FE53" />
<path d="M5.53986 8.34694V10.1728H7.38621V8.34694H5.53986Z" fill="#E7FE53" />
<path d="M7.38593 8.34696V10.1728H9.23228V8.34696H7.38593Z" fill="#E7FE53" />
<path d="M3.69299 8.34971V10.1756H5.53935V8.34971H3.69299Z" fill="#E7FE53" />
<path d="M1.84686 8.34971L1.84686 10.1756H3.69322V8.34971H1.84686Z" fill="#E7FE53" />
<path d="M11.0812 19.3022V21.1281H12.9276V19.3022H11.0812Z" fill="#E7FE53" />
<path d="M9.23438 19.3022V21.1281H11.0807V19.3022H9.23438Z" fill="#E7FE53" />
<path d="M7.38907 19.3022V21.1281H9.23543V19.3022H7.38907Z" fill="#E7FE53" />
<path d="M5.54218 19.3022V21.1281H7.38853V19.3022H5.54218Z" fill="#E7FE53" />
<path d="M0 10.1755L0 12.0013H1.84636L1.84636 10.1755H0Z" fill="#E7FE53" />
<path d="M0 12.0013L0 13.8272H1.84636L1.84636 12.0013H0Z" fill="#E7FE53" />
<path d="M0 13.8271L0 15.653H1.84636L1.84636 13.8271H0Z" fill="#E7FE53" />
<path d="M1.84686 15.653L1.84686 17.4789H3.69322V15.653H1.84686Z" fill="#E7FE53" />
<path d="M3.69296 17.4789V19.3048H5.53932V17.4789H3.69296Z" fill="#E7FE53" />
<path d="M12.9273 8.34696V10.1728H14.7737V8.34696H12.9273Z" fill="#E7FE53" />
<path d="M7.38593 4.69519V6.52106H9.23228V4.69519H7.38593Z" fill="#E7FE53" />
<path d="M9.23438 2.86924V4.6951H11.0807V2.86924H9.23438Z" fill="#E7FE53" />
<path d="M7.38907 1.04349V2.86935H9.23543V1.04349L7.38907 1.04349Z" fill="#E7FE53" />
<path d="M12.9273 1.04349V2.86935H14.7737V1.04349L12.9273 1.04349Z" fill="#E7FE53" />
<path d="M12.9273 4.69519V6.52106H14.7737V4.69519H12.9273Z" fill="#E7FE53" />
<path d="M11.0812 6.52629V8.35217H12.9276V6.52629H11.0812Z" fill="#E7FE53" />
<path d="M3.69531 21.1306V22.9565H5.54167V21.1306H3.69531Z" fill="#E7FE53" />
<path d="M1.84924 21.1306L1.84924 22.9565H3.6956V21.1306H1.84924Z" fill="#E7FE53" />
<path d="M14.7742 21.1281V22.9539H16.6206V21.1281H14.7742Z" fill="#E7FE53" />
<path d="M16.6203 21.1306V22.9565H18.4667V21.1306H16.6203Z" fill="#E7FE53" />
<path d="M14.7742 2.86933V4.69519H16.6206V2.86933H14.7742Z" fill="#E7FE53" />
<path d="M14.7742 8.34696V10.1728H16.6206V8.34696H14.7742Z" fill="#E7FE53" />
<path d="M16.6203 8.34694V10.1728H18.4667V8.34694H16.6203Z" fill="#E7FE53" />
<path d="M12.9273 19.3022V21.1281H14.7737V19.3022H12.9273Z" fill="#E7FE53" />
<path d="M11.0812 21.128V22.9539H12.9276V21.128H11.0812Z" fill="#E7FE53" />
<path d="M9.23438 21.1281V22.9539H11.0807V21.1281H9.23438Z" fill="#E7FE53" />
<path d="M7.38907 21.1281V22.9539H9.23542V21.1281H7.38907Z" fill="#E7FE53" />
<path d="M5.54218 21.128V22.9539H7.38853V21.128H5.54218Z" fill="#E7FE53" />
<path d="M12.9273 21.1281V22.9539H14.7737V21.1281H12.9273Z" fill="#E7FE53" />
<path d="M18.4664 10.1729V11.9988H20.3128V10.1729H18.4664Z" fill="#E7FE53" />
<path d="M18.4664 11.9987V13.8246H20.3128V11.9987H18.4664Z" fill="#E7FE53" />
<path d="M18.4664 8.34696V10.1728H20.3128V8.34696H18.4664Z" fill="#E7FE53" />
<path d="M20.3102 8.34696V10.1728H22.1565V8.34696H20.3102Z" fill="#E7FE53" />
<path d="M22.1539 10.1729V11.9988H24.0003V10.1729H22.1539Z" fill="#E7FE53" />
<path d="M22.1539 11.9987V13.8246H24.0003V11.9987H22.1539Z" fill="#E7FE53" />
<path d="M20.3102 13.8245V15.6504H22.1565V13.8245H20.3102Z" fill="#E7FE53" />
<path d="M18.4664 13.8245V15.6504H20.3128V13.8245H18.4664Z" fill="#E7FE53" />
<path d="M16.6172 15.6504V17.4763H18.4635V15.6504H16.6172Z" fill="#E7FE53" />
<path d="M14.7711 17.4764V19.3023H16.6175V17.4764H14.7711Z" fill="#E7FE53" />
</g>
<defs>

</defs>
</symbol><clipPath id="cup_clip0_19_692">
<rect width="24" height="24" fill="white" />
</clipPath><symbol viewBox="0 0 14 12" fill="none" id="hearth">
<path d="M6.36458 2.74726V4.0376H7.63713V2.74726H6.36458Z" fill="white" />
<path d="M7.63737 1.45697V2.74731H8.90992V1.45697H7.63737Z" fill="white" />
<path d="M8.90983 0.166568V1.45691H10.1824V0.166568H8.90983Z" fill="white" />
<path d="M10.1826 0.166573V1.45691H11.4552V0.166573H10.1826Z" fill="white" />
<path d="M11.4548 1.45697V2.74731H12.7273V1.45697H11.4548Z" fill="white" />
<path d="M12.7275 2.74909V4.03943H14.0001V2.74909H12.7275Z" fill="white" />
<path d="M12.7275 4.0395V5.32983H14.0001V4.0395H12.7275Z" fill="white" />
<path d="M11.4548 5.32978V6.62012H12.7273V5.32978H11.4548Z" fill="white" />
<path d="M10.1826 6.62019V7.91052H11.4552V6.62019H10.1826Z" fill="white" />
<path d="M8.91178 7.91046V9.20081H10.1843V7.91046H8.91178Z" fill="white" />
<path d="M7.63737 9.20087V10.4912H8.90992V9.20087H7.63737Z" fill="white" />
<path d="M5.09245 1.45697V2.74731H6.365V1.45697H5.09245Z" fill="white" />
<path d="M3.81966 0.166568V1.45691H5.09222V0.166568H3.81966Z" fill="white" />
<path d="M2.5472 0.166573V1.45691H3.81976V0.166573H2.5472Z" fill="white" />
<path d="M1.27279 1.50873V2.79907H2.54534V1.50873H1.27279Z" fill="white" />
<path d="M0 2.79902L0 4.08936H1.27255V2.79902H0Z" fill="white" />
<path d="M0 4.08942L0 5.37976H1.27255V4.08942H0Z" fill="white" />
<path d="M1.27279 5.32794V6.61829H2.54534V5.32794H1.27279Z" fill="white" />
<path d="M2.54525 6.61835V7.90869H3.8178V6.61835H2.54525Z" fill="white" />
<path d="M3.81966 7.96222V9.25256H5.09221V7.96222H3.81966Z" fill="white" />
<path d="M5.09245 9.25263V10.543H6.365V9.25263H5.09245Z" fill="white" />
<path d="M6.36458 10.5429V11.8333H7.63713V10.5429H6.36458Z" fill="white" />
</symbol><symbol viewBox="0 0 24 24" fill="none" id="location">
<path d="M2.99999 8.53571H5.573V5.95647H2.99999L2.99999 8.53571Z" fill="#E7FE53" />
<path d="M2.99999 11.1113H5.573V8.53209H2.99999L2.99999 11.1113Z" fill="#E7FE53" />
<path d="M3.00001 13.6905H5.57302V11.1113H3.00001L3.00001 13.6905Z" fill="#E7FE53" />
<path d="M5.57303 5.95651H8.14604V3.37728H5.57303V5.95651Z" fill="#E7FE53" />
<path d="M8.14232 3.3291H10.7153V0.74987H8.14232V3.3291Z" fill="#E7FE53" />
<path d="M10.7153 3.3291H13.2883V0.74987H10.7153V3.3291Z" fill="#E7FE53" />
<path d="M10.7154 11.1113H13.2884V8.53209H10.7154V11.1113Z" fill="#E7FE53" />
<path d="M2.99999 16.2661H5.573V13.6869H2.99999L2.99999 16.2661Z" fill="#E7FE53" />
<path d="M5.57301 18.9967H8.14602V16.4175H5.57301V18.9967Z" fill="#E7FE53" />
<path d="M8.14235 21.5723H10.7154V18.9931H8.14235V21.5723Z" fill="#E7FE53" />
<path d="M10.7154 24H13.2884V21.4208H10.7154V24Z" fill="#E7FE53" />
<path d="M13.2847 3.3291H15.8577V0.74987H13.2847V3.3291Z" fill="#E7FE53" />
<path d="M13.2847 21.4208H15.8577V18.8416H13.2847V21.4208Z" fill="#E7FE53" />
<path d="M15.8577 5.95648H18.4307V3.37725H15.8577V5.95648Z" fill="#E7FE53" />
<path d="M15.8577 18.8453H18.4307V16.266H15.8577V18.8453Z" fill="#E7FE53" />
<path d="M18.427 8.53571H21V5.95647H18.427V8.53571Z" fill="#E7FE53" />
<path d="M18.427 11.1113H21V8.53209H18.427V11.1113Z" fill="#E7FE53" />
<path d="M18.427 13.6905H21V11.1113H18.427V13.6905Z" fill="#E7FE53" />
<path d="M18.427 16.2661H21V13.6869H18.427V16.2661Z" fill="#E7FE53" />
</symbol><symbol viewBox="0 0 24 24" fill="none" id="message">
<path d="M9.22345 0.790914V2.65869H11.0702V0.790914L9.22345 0.790914Z" fill="#1A1A1A" />
<path d="M7.38751 0.79334V2.66113H9.23431V0.79334L7.38751 0.79334Z" fill="#1A1A1A" />
<path d="M22.1531 2.65564V4.52344H23.9999V2.65564H22.1531Z" fill="#1A1A1A" />
<path d="M5.54065 0.793355V2.66113H7.38744V0.793355L5.54065 0.793355Z" fill="#1A1A1A" />
<path d="M3.69373 0.793357V2.66113H5.54052V0.793357L3.69373 0.793357Z" fill="#1A1A1A" />
<path d="M1.84607 0.79334L1.84607 2.66113H3.69286V0.79334L1.84607 0.79334Z" fill="#1A1A1A" />
<path d="M0 2.65566L0 4.52344H1.84679L1.84679 2.65566H0Z" fill="#1A1A1A" />
<path d="M22.1531 4.52381V6.3916H23.9999V4.52381H22.1531Z" fill="#1A1A1A" />
<path d="M0 4.52382L0 6.3916H1.84679L1.84679 4.52382H0Z" fill="#1A1A1A" />
<path d="M22.1531 6.39148V8.25928H23.9999V6.39148H22.1531Z" fill="#1A1A1A" />
<path d="M0 6.3915L0 8.25928H1.8468L1.8468 6.3915H0Z" fill="#1A1A1A" />
<path d="M22.1531 8.25916V10.127H23.9999V8.25916H22.1531Z" fill="#1A1A1A" />
<path d="M0 8.25918L0 10.127H1.84679L1.84679 8.25918H0Z" fill="#1A1A1A" />
<path d="M22.1531 10.1273V11.9951H23.9999V10.1273H22.1531Z" fill="#1A1A1A" />
<path d="M0 10.1273L0 11.9951H1.84679L1.84679 10.1273H0Z" fill="#1A1A1A" />
<path d="M22.1531 12.0052V13.873H23.9999V12.0052H22.1531Z" fill="#1A1A1A" />
<path d="M0 12.0053L0 13.873H1.84679L1.84679 12.0053H0Z" fill="#1A1A1A" />
<path d="M22.1531 13.8734V15.7412H23.9999V13.8734H22.1531Z" fill="#1A1A1A" />
<path d="M0 13.8734L0 15.7412H1.84679L1.84679 13.8734H0Z" fill="#1A1A1A" />
<path d="M22.1531 15.7411V17.6089H23.9999V15.7411H22.1531Z" fill="#1A1A1A" />
<path d="M0 15.7411L0 17.6089H1.84679L1.84679 15.7411H0Z" fill="#1A1A1A" />
<path d="M18.4602 0.785543V2.65332H20.307V0.785543L18.4602 0.785543Z" fill="#1A1A1A" />
<path d="M11.0703 0.790898V2.65869H12.9171V0.790898L11.0703 0.790898Z" fill="#1A1A1A" />
<path d="M12.9196 0.790914V2.65869H14.7663V0.790914L12.9196 0.790914Z" fill="#1A1A1A" />
<path d="M14.7633 0.785543V2.65332H16.6101V0.785543L14.7633 0.785543Z" fill="#1A1A1A" />
<path d="M16.6133 0.785528V2.65332H18.4601V0.785528L16.6133 0.785528Z" fill="#1A1A1A" />
<path d="M9.22577 17.6195V19.4873H11.0726V17.6195H9.22577Z" fill="#1A1A1A" />
<path d="M20.3063 0.782614V2.65039H22.1531V0.782614L20.3063 0.782614Z" fill="#1A1A1A" />
<path d="M20.3063 17.6142V19.4819H22.1531V17.6142H20.3063Z" fill="#1A1A1A" />
<path d="M11.0727 17.6195V19.4873H12.9195V17.6195H11.0727Z" fill="#1A1A1A" />
<path d="M12.9196 17.6195V19.4873H14.7663V17.6195H12.9196Z" fill="#1A1A1A" />
<path d="M16.6133 21.3495V23.2173H18.4601V21.3495H16.6133Z" fill="#1A1A1A" />
<path d="M14.7664 19.4818V21.3496H16.6132V19.4818H14.7664Z" fill="#1A1A1A" />
<path d="M18.4601 19.4818V21.3496H20.3069V19.4818H18.4601Z" fill="#1A1A1A" />
<path d="M7.38983 17.6224V19.4902H9.23663V17.6224H7.38983Z" fill="#1A1A1A" />
<path d="M5.54297 17.622V19.4897H7.38976V17.622H5.54297Z" fill="#1A1A1A" />
<path d="M3.69611 17.6225V19.4902H5.5429V17.6225H3.69611Z" fill="#1A1A1A" />
<path d="M1.84924 17.6224L1.84924 19.4902H3.69604V17.6224H1.84924Z" fill="#1A1A1A" />
</symbol></defs></svg>