<svg width="14" height="12" viewBox="0 0 14 12" fill="none" xmlns="http://www.w3.org/2000/svg">
<path d="M6.36458 2.74726V4.0376H7.63713V2.74726H6.36458Z" fill="white"/>
<path d="M7.63737 1.45697V2.74731H8.90992V1.45697H7.63737Z" fill="white"/>
<path d="M8.90983 0.166568V1.45691H10.1824V0.166568H8.90983Z" fill="white"/>
<path d="M10.1826 0.166573V1.45691H11.4552V0.166573H10.1826Z" fill="white"/>
<path d="M11.4548 1.45697V2.74731H12.7273V1.45697H11.4548Z" fill="white"/>
<path d="M12.7275 2.74909V4.03943H14.0001V2.74909H12.7275Z" fill="white"/>
<path d="M12.7275 4.0395V5.32983H14.0001V4.0395H12.7275Z" fill="white"/>
<path d="M11.4548 5.32978V6.62012H12.7273V5.32978H11.4548Z" fill="white"/>
<path d="M10.1826 6.62019V7.91052H11.4552V6.62019H10.1826Z" fill="white"/>
<path d="M8.91178 7.91046V9.20081H10.1843V7.91046H8.91178Z" fill="white"/>
<path d="M7.63737 9.20087V10.4912H8.90992V9.20087H7.63737Z" fill="white"/>
<path d="M5.09245 1.45697V2.74731H6.365V1.45697H5.09245Z" fill="white"/>
<path d="M3.81966 0.166568V1.45691H5.09222V0.166568H3.81966Z" fill="white"/>
<path d="M2.5472 0.166573V1.45691H3.81976V0.166573H2.5472Z" fill="white"/>
<path d="M1.27279 1.50873V2.79907H2.54534V1.50873H1.27279Z" fill="white"/>
<path d="M0 2.79902L0 4.08936H1.27255V2.79902H0Z" fill="white"/>
<path d="M0 4.08942L0 5.37976H1.27255V4.08942H0Z" fill="white"/>
<path d="M1.27279 5.32794V6.61829H2.54534V5.32794H1.27279Z" fill="white"/>
<path d="M2.54525 6.61835V7.90869H3.8178V6.61835H2.54525Z" fill="white"/>
<path d="M3.81966 7.96222V9.25256H5.09221V7.96222H3.81966Z" fill="white"/>
<path d="M5.09245 9.25263V10.543H6.365V9.25263H5.09245Z" fill="white"/>
<path d="M6.36458 10.5429V11.8333H7.63713V10.5429H6.36458Z" fill="white"/>
</svg>
